<?xml version="1.0" encoding="utf-8"?>
<!-- Generator: Adobe Illustrator 17.1.0, SVG Export Plug-In . SVG Version: 6.00 Build 0)  -->
<!DOCTYPE svg PUBLIC "-//W3C//DTD SVG 1.1//EN" "http://www.w3.org/Graphics/SVG/1.1/DTD/svg11.dtd">
<svg version="1.1" id="Icon" xmlns="http://www.w3.org/2000/svg" xmlns:xlink="http://www.w3.org/1999/xlink" x="0px" y="0px"
	 viewBox="284.9 39 22 22" enable-background="new 284.9 39 22 22" xml:space="preserve">
<linearGradient id="SVGID_1_" gradientUnits="userSpaceOnUse" x1="308.7276" y1="-237.8523" x2="308.7276" y2="-235.3331" gradientTransform="matrix(8.6806 0 0 8.6806 -2383.9863 2103.8833)">
	<stop  offset="0" style="stop-color:#EC9728"/>
	<stop  offset="1" style="stop-color:#DF4C18"/>
</linearGradient>
<path fill="url(#SVGID_1_)" d="M306.9,58.3c0,1.5-1.2,2.7-2.7,2.7h-16.4c-1.5,0-2.7-1.2-2.7-2.7V41.9c0-1.5,1.2-2.7,2.7-2.7h16.4
	c1.5,0,2.7,1.2,2.7,2.7V58.3z"/>
<path fill="#DF4C18" d="M301.7,48.2c-0.8,0-0.8,0-0.8,0s-0.7,0-0.7-0.9s-0.3-3.7-3.3-3.7c-3,0-3.3,0-3.3,0s-3.5-0.2-3.5,3.6v5.1
	c0,0,0,3.6,3.5,3.6s5.4,0,5.4,0s3.6-0.1,3.6-3.7c0-2.5,0-3.2,0-3.2S302.6,48.2,301.7,48.2z M294,46.8h2.3c0.4,0,0.7,0.3,0.7,0.7
	c0,0.4-0.3,0.7-0.7,0.7H294c-0.4,0-0.7-0.3-0.7-0.7C293.3,47.1,293.6,46.8,294,46.8z M298.7,52.8H294c-0.4,0-0.7-0.3-0.7-0.7
	c0-0.4,0.3-0.7,0.7-0.7h4.6c0.4,0,0.7,0.3,0.7,0.7C299.4,52.4,299.1,52.8,298.7,52.8z"/>
<path fill="#FFFFFF" d="M301.7,49.1c-0.8,0-0.8,0-0.8,0s-0.7,0-0.7-0.9c0-1-0.3-3.7-3.3-3.7c-3,0-3.3,0-3.3,0s-3.5-0.2-3.5,3.6v5.1
	c0,0,0,3.6,3.5,3.6s5.4,0,5.4,0s3.6-0.1,3.6-3.7c0-2.5,0-3.2,0-3.2S302.6,49.1,301.7,49.1z M294,47.6h2.3c0.4,0,0.7,0.3,0.7,0.7
	s-0.3,0.7-0.7,0.7H294c-0.4,0-0.7-0.3-0.7-0.7S293.6,47.6,294,47.6z M298.7,53.6H294c-0.4,0-0.7-0.3-0.7-0.7s0.3-0.7,0.7-0.7h4.6
	c0.4,0,0.7,0.3,0.7,0.7S299.1,53.6,298.7,53.6z"/>
</svg>
